# Blender 4.0.2
# www.blender.org
mtllib Icosahedron.mtl
o Solid
v 0.425325 0.000000 -0.262866
v -0.425325 0.000000 -0.262866
v 0.425325 0.000000 0.262866
v -0.425325 0.000000 0.262866
v 0.262866 0.425325 0.000000
v 0.262866 -0.425325 0.000000
v -0.262866 0.425325 0.000000
v -0.262866 -0.425325 0.000000
v 0.000000 0.262866 -0.425325
v 0.000000 0.262866 0.425325
v 0.000000 -0.262866 -0.425325
v 0.000000 -0.262866 0.425325
vn 0.5774 0.5774 -0.5774
vn 0.5774 -0.5774 -0.5774
vn 0.5774 0.5774 0.5774
vn 0.5774 -0.5774 0.5774
vn -0.5774 0.5774 -0.5774
vn -0.5774 -0.5774 -0.5774
vn -0.5774 0.5774 0.5774
vn -0.5774 -0.5774 0.5774
vn 0.3568 -0.0000 -0.9342
vn -0.3568 -0.0000 -0.9342
vn 0.3568 -0.0000 0.9342
vn -0.3568 -0.0000 0.9342
vn 0.9342 0.3568 -0.0000
vn 0.9342 -0.3568 -0.0000
vn -0.9342 0.3568 -0.0000
vn -0.9342 -0.3568 -0.0000
vn -0.0000 0.9342 -0.3568
vn -0.0000 0.9342 0.3568
vn -0.0000 -0.9342 -0.3568
vn -0.0000 -0.9342 0.3568
s 0
usemtl Material
f 1/1/1 9/1/1 5/1/1
f 1/1/2 6/1/2 11/1/2
f 3/1/3 5/1/3 10/1/3
f 3/1/4 12/1/4 6/1/4
f 2/1/5 7/1/5 9/1/5
f 2/1/6 11/1/6 8/1/6
f 4/1/7 10/1/7 7/1/7
f 4/1/8 8/1/8 12/1/8
f 1/1/9 11/1/9 9/1/9
f 2/1/10 9/1/10 11/1/10
f 3/1/11 10/1/11 12/1/11
f 4/1/12 12/1/12 10/1/12
f 5/1/13 3/1/13 1/1/13
f 6/1/14 1/1/14 3/1/14
f 7/1/15 2/1/15 4/1/15
f 8/1/16 4/1/16 2/1/16
f 9/1/17 7/1/17 5/1/17
f 10/1/18 5/1/18 7/1/18
f 11/1/19 6/1/19 8/1/19
f 12/1/20 8/1/20 6/1/20
